<?xml version="1.0" encoding="UTF-8" standalone="no" ?>
<!DOCTYPE svg PUBLIC "-//W3C//DTD SVG 1.1//EN" "http://www.w3.org/Graphics/SVG/1.1/DTD/svg11.dtd">
<svg xmlns="http://www.w3.org/2000/svg" xmlns:xlink="http://www.w3.org/1999/xlink" version="1.1" width="1280" height="1024" viewBox="0 0 1280 1024" xml:space="preserve">
<desc>Created with Fabric.js 3.1.0</desc>
<defs>
</defs>
<g transform="matrix(1.9692780337941629 0 0 1.9692780337941629 640.0153846153846 512.012312418764)" id="background-logo"  >
<rect style="stroke: none; stroke-width: 1; stroke-dasharray: none; stroke-linecap: butt; stroke-dashoffset: 0; stroke-linejoin: miter; stroke-miterlimit: 4; fill: rgb(255,255,255); fill-rule: nonzero; opacity: 1;"  paint-order="stroke"  x="-325" y="-260" rx="0" ry="0" width="650" height="520" />
</g>
<g transform="matrix(1.9692780337941629 0 0 1.9692780337941629 640.0159596445704 351.9137577766749)" style="" id="logo-logo"  >
	<g transform="matrix(0.208 0 0 -0.208 -0.0012919999999780885 -2.500903999999963)"  >
<path style="stroke: none; stroke-width: 1; stroke-dasharray: none; stroke-linecap: butt; stroke-dashoffset: 0; stroke-linejoin: miter; stroke-miterlimit: 4; fill: rgb(191,178,144); fill-rule: nonzero; opacity: 1;"  paint-order="stroke"  transform=" translate(-870.2574999999999, -1107.6734999999999)" d="M 870.254 1298.12 L 1176.96 917.227 L 971.461 1053.53 L 1025.05 932.121 L 895.453 1078.82 L 870.254 967.52 L 845.055 1078.82 L 715.453 932.121 L 769.156 1053.53 L 563.555 917.227 L 870.254 1298.12" stroke-linecap="round" />
</g>
	<g transform="matrix(0.208 0 0 -0.208 -0.0002920000000017353 -1.7159039999999948)"  >
<path style="stroke: none; stroke-width: 1; stroke-dasharray: none; stroke-linecap: butt; stroke-dashoffset: 0; stroke-linejoin: miter; stroke-miterlimit: 4; fill: rgb(82,66,59); fill-rule: nonzero; opacity: 1;"  paint-order="stroke"  transform=" translate(-870.2629999999999, -1103.8995)" d="m 1296.76 814.699 c -11.39 -0.597 -22.59 -2.304 -33.3 -5 l -86.49 107.5 L 870.266 1298.1 L 563.563 917.199 L 477.066 809.699 c -10.703 2.696 -21.906 4.403 -33.3 5 l 426.5 583.401 l 426.494 -583.401" stroke-linecap="round" />
</g>
	<g transform="matrix(0.208 0 0 -0.208 90.89070800000002 96.21009600000005)"  >
<linearGradient id="SVGID_384253" gradientUnits="userSpaceOnUse" gradientTransform="matrix(-363.096 0.0000317 0.0000317 363.096 1488.46 633.45)"  x1="0" y1="5.684341886080802e-14" x2="1" y2="5.684341886080802e-14">
<stop offset="0%" style="stop-color:rgb(211,30,37);stop-opacity: 1"/>
<stop offset="100%" style="stop-color:rgb(236,37,54);stop-opacity: 1"/>
</linearGradient>
<path style="stroke: none; stroke-width: 1; stroke-dasharray: none; stroke-linecap: butt; stroke-dashoffset: 0; stroke-linejoin: miter; stroke-miterlimit: 4; fill: url(#SVGID_384253); fill-rule: nonzero; opacity: 1;"  paint-order="stroke"  transform=" translate(-1306.9150000000002, -633.4490000000001)" d="m 1488.46 633.5 c 0 -47.809 -18.4 -91.199 -48.49 -123.609 c -30.1 -32.391 -71.81 -53.801 -118.61 -57.391 c -4.79 -0.398 -9.6 -0.602 -14.39 -0.602 c -100.3 0 -181.6 81.293 -181.6 181.602 c 0 62.5 31.6 117.594 79.69 150.301 c 17.5 11.894 37.2 20.801 58.4 25.898 c 10.71 2.696 21.91 4.403 33.3 5 c 3.4 0.196 6.8 0.301 10.21 0.301 c 100.29 0 181.49 -81.301 181.49 -181.5" stroke-linecap="round" />
</g>
	<g transform="matrix(0.208 0 0 -0.208 -90.89029200000002 96.21009600000005)"  >
<linearGradient id="SVGID_384254" gradientUnits="userSpaceOnUse" gradientTransform="matrix(363.096 0 0 -363.096 252.065 633.45)"  x1="-2.842170943040401e-14" y1="5.684341886080802e-14" x2="0.9999999999999716" y2="5.684341886080802e-14">
<stop offset="0%" style="stop-color:rgb(211,30,37);stop-opacity: 1"/>
<stop offset="100%" style="stop-color:rgb(236,37,54);stop-opacity: 1"/>
</linearGradient>
<path style="stroke: none; stroke-width: 1; stroke-dasharray: none; stroke-linecap: butt; stroke-dashoffset: 0; stroke-linejoin: miter; stroke-miterlimit: 4; fill: url(#SVGID_384254); fill-rule: nonzero; opacity: 1;"  paint-order="stroke"  transform=" translate(-433.61299999999994, -633.4490000000001)" d="m 615.16 633.5 c 0 -100.309 -81.297 -181.602 -181.597 -181.602 c -4.797 0 -9.598 0.204 -14.399 0.602 c -46.801 3.59 -88.5 25 -118.601 57.391 c -30.098 32.41 -48.497 75.8 -48.497 123.609 c 0 100.199 81.196 181.5 181.497 181.5 c 3.402 0 6.796 -0.105 10.203 -0.301 c 11.394 -0.597 22.597 -2.304 33.3 -5 c 21.196 -5.097 40.899 -14.004 58.399 -25.898 C 583.563 751.094 615.16 696 615.16 633.5" stroke-linecap="round" />
</g>
	<g transform="matrix(0.208 0 0 -0.208 33.87770800000004 -85.57290399999997)"  >
<path style="stroke: none; stroke-width: 1; stroke-dasharray: none; stroke-linecap: butt; stroke-dashoffset: 0; stroke-linejoin: miter; stroke-miterlimit: 4; fill: rgb(163,215,29); fill-rule: nonzero; opacity: 1;"  paint-order="stroke"  transform=" translate(-1033.0165000000002, -1506.7651786342249)" d="m 1186.17 1609.6 c -134.1 -273.3 -306.307 -195.4 -306.307 -195.4 c 0 0 125.597 7.2 167.207 175.5 c 37.4 11.3 83.09 18.7 139.1 19.9" stroke-linecap="round" />
</g>
	<g transform="matrix(0.208 0 0 -0.208 17.29970800000001 -101.191904)"  >
<path style="stroke: none; stroke-width: 1; stroke-dasharray: none; stroke-linecap: butt; stroke-dashoffset: 0; stroke-linejoin: miter; stroke-miterlimit: 4; fill: rgb(118,201,43); fill-rule: nonzero; opacity: 1;"  paint-order="stroke"  transform=" translate(-953.3747204841757, -1581.8000000000002)" d="m 1037.07 1599.7 c -41.605 -168.3 -167.207 -175.5 -167.207 -175.5 c 0 0 -86.3 167.9 180.107 315.2 c 1.49 -55.9 -3.61 -101.9 -12.9 -139.7" stroke-linecap="round" />
</g>
</g>
<g transform="matrix(1.9692780337941629 0 0 1.9692780337941629 645.7095751275774 740.4376382411062)" id="text-logo-path"  >
<path style="stroke: none; stroke-width: 1; stroke-dasharray: none; stroke-linecap: butt; stroke-dashoffset: 0; stroke-linejoin: miter; stroke-miterlimit: 4; fill: rgb(82,66,59); fill-rule: nonzero; opacity: 1;"  paint-order="stroke"  transform=" translate(-212.74999999999997, 27.62)" d="M 7.22 -10.63 L 7.22 -10.63 L 7.22 -44.62 Q 7.22 -50.3 10.71 -53.42 Q 14.19 -56.53 21.17 -56.53 Q 28.14 -56.53 31.71 -53.42 Q 35.28 -50.3 35.28 -44.62 L 35.28 -44.62 L 35.28 -36.56 L 29.34 -36.56 L 29.34 -44.62 Q 29.34 -51.42 21.25 -51.42 Q 13.16 -51.42 13.16 -44.62 L 13.16 -44.62 L 13.16 -10.63 Q 13.16 -3.82 21.25 -3.82 Q 29.34 -3.82 29.34 -10.63 L 29.34 -10.63 L 29.34 -15.31 L 35.28 -15.31 L 35.28 -10.63 Q 35.28 -4.94 31.79 -1.83 Q 28.31 1.29 21.33 1.29 Q 14.36 1.29 10.79 -1.83 Q 7.22 -4.94 7.22 -10.63 Z M 56.07 0 L 50.14 0 L 50.14 -55.24 L 56.07 -55.24 L 56.07 -30.59 L 72.84 -30.59 L 72.84 -55.24 L 78.77 -55.24 L 78.77 0 L 72.84 0 L 72.84 -25.48 L 56.07 -25.48 L 56.07 0 Z M 94.46 -10.63 L 94.46 -10.63 L 94.46 -44.62 Q 94.46 -50.3 97.95 -53.42 Q 101.44 -56.53 108.41 -56.53 Q 115.38 -56.53 118.95 -53.42 Q 122.52 -50.3 122.52 -44.62 L 122.52 -44.62 L 122.52 -25.94 L 100.4 -25.94 L 100.4 -10.63 Q 100.4 -3.82 108.49 -3.82 Q 116.58 -3.82 116.58 -10.63 L 116.58 -10.63 L 116.58 -15.31 L 122.52 -15.31 L 122.52 -10.63 Q 122.52 -4.94 119.03 -1.83 Q 115.55 1.29 108.57 1.29 Q 101.6 1.29 98.03 -1.83 Q 94.46 -4.94 94.46 -10.63 Z M 100.4 -44.62 L 100.4 -31.04 L 116.58 -31.04 L 116.58 -44.62 Q 116.58 -51.42 108.49 -51.42 Q 100.4 -51.42 100.4 -44.62 L 100.4 -44.62 Z M 144.18 0 L 138.25 0 L 138.25 -55.24 L 140.78 -55.24 L 143.27 -48.97 Q 146.01 -56.53 151.95 -56.53 L 151.95 -56.53 Q 162.07 -56.53 162.03 -45.49 L 162.03 -45.49 L 162.03 -39.97 L 156.35 -39.97 L 156.35 -45.82 Q 156.35 -51.42 151.66 -51.42 L 151.66 -51.42 Q 148.83 -51.42 146.51 -48.19 Q 144.18 -44.95 144.18 -38.85 L 144.18 -38.85 L 144.18 0 Z M 178.18 0 L 172.24 0 L 172.24 -55.24 L 174.77 -55.24 L 177.26 -48.97 Q 180 -56.53 185.94 -56.53 L 185.94 -56.53 Q 196.06 -56.53 196.02 -45.49 L 196.02 -45.49 L 196.02 -39.97 L 190.34 -39.97 L 190.34 -45.82 Q 190.34 -51.42 185.65 -51.42 L 185.65 -51.42 Q 182.82 -51.42 180.5 -48.19 Q 178.18 -44.95 178.18 -38.85 L 178.18 -38.85 L 178.18 0 Z M 203.24 -27.35 L 203.24 -27.35 L 203.24 -55.24 L 209.18 -55.24 L 209.18 -27.35 Q 209.18 -20.54 217.65 -20.54 L 217.65 -20.54 Q 217.65 -20.54 217.69 -20.59 L 217.69 -20.59 Q 226.2 -20.59 226.2 -27.35 L 226.2 -27.35 L 226.2 -55.24 L 232.13 -55.24 L 232.13 -27.35 Q 232.13 -16.89 220.76 -15.65 L 220.76 -15.65 L 220.76 0 L 214.82 0 L 214.82 -15.65 Q 203.24 -16.93 203.24 -27.35 Z M 270.81 0 L 264.84 0 L 264.84 -55.24 L 277.7 -55.24 Q 284.34 -55.24 287.77 -52.11 Q 291.19 -48.97 291.19 -43.33 L 291.19 -43.33 L 291.19 -28.89 Q 291.19 -23.2 287.79 -20.11 Q 284.38 -17.02 277.7 -17.02 L 277.7 -17.02 L 270.81 -17.02 L 270.81 0 Z M 270.81 -50.14 L 270.81 -22.08 L 277.7 -22.08 Q 285.26 -22.08 285.26 -28.89 L 285.26 -28.89 L 285.26 -43.33 Q 285.26 -46.57 283.31 -48.35 Q 281.35 -50.14 277.7 -50.14 L 277.7 -50.14 L 270.81 -50.14 Z M 303.52 -10.63 L 303.52 -10.63 L 303.52 -44.62 Q 303.52 -50.3 307 -53.42 Q 310.49 -56.53 317.46 -56.53 Q 324.44 -56.53 328.01 -53.42 Q 331.57 -50.3 331.57 -44.62 L 331.57 -44.62 L 331.57 -25.94 L 309.45 -25.94 L 309.45 -10.63 Q 309.45 -3.82 317.55 -3.82 Q 325.64 -3.82 325.64 -10.63 L 325.64 -10.63 L 325.64 -15.31 L 331.57 -15.31 L 331.57 -10.63 Q 331.57 -4.94 328.09 -1.83 Q 324.6 1.29 317.63 1.29 Q 310.66 1.29 307.09 -1.83 Q 303.52 -4.94 303.52 -10.63 Z M 309.45 -44.62 L 309.45 -31.04 L 325.64 -31.04 L 325.64 -44.62 Q 325.64 -51.42 317.55 -51.42 Q 309.45 -51.42 309.45 -44.62 L 309.45 -44.62 Z M 345.6 -10.63 L 345.6 -10.63 L 345.6 -19.13 Q 345.6 -31.04 357.85 -31.04 L 357.85 -31.04 L 367.68 -31.04 L 367.68 -44.95 Q 367.68 -48.02 365.73 -49.72 Q 363.78 -51.42 359.96 -51.42 L 359.96 -51.42 Q 352.41 -51.42 352.41 -44.95 L 352.41 -44.95 L 352.41 -39.97 L 346.43 -39.97 L 346.43 -44.62 Q 346.43 -50.3 349.79 -53.42 Q 353.16 -56.53 359.96 -56.53 Q 366.77 -56.53 370.21 -53.42 Q 373.66 -50.3 373.66 -44.62 L 373.66 -44.62 L 373.66 0 L 371.09 0 L 368.89 -5.44 Q 367.1 -2.37 364.22 -0.54 Q 361.33 1.29 357.85 1.29 L 357.85 1.29 Q 345.6 1.29 345.6 -10.63 Z M 351.54 -19.13 L 351.54 -10.63 Q 351.54 -7.39 352.91 -5.6 Q 354.28 -3.82 357.85 -3.82 Q 361.42 -3.82 364.47 -6.58 Q 367.52 -9.34 367.68 -12.08 L 367.68 -12.08 L 367.68 -25.94 L 357.85 -25.94 Q 354.28 -25.94 352.91 -24.16 Q 351.54 -22.37 351.54 -19.13 L 351.54 -19.13 Z M 395.82 0 L 389.89 0 L 389.89 -55.24 L 395.82 -55.24 L 395.82 -31.79 L 410.64 -55.24 L 417.24 -55.24 L 402.21 -31.46 L 418.28 0 L 411.72 0 L 398.65 -25.77 L 395.82 -21.25 L 395.82 0 Z" stroke-linecap="round" />
</g>
<g transform="matrix(1.9692780337941629 0 0 1.9692780337941629 637.344516665836 868.745562826095)" id="tagline-41b0f13f-56fb-482d-a922-ef069f0ad764-logo-path"  >
<path style="stroke: none; stroke-width: 1; stroke-dasharray: none; stroke-linecap: butt; stroke-dashoffset: 0; stroke-linejoin: miter; stroke-miterlimit: 4; fill: rgb(215,31,40); fill-rule: nonzero; opacity: 1;"  paint-order="stroke"  transform=" translate(-111.635, 19.455)" d="M 0.75 -36.38 L 0.75 -36.38 Q 0.75 -37.71 0.97 -38.94 L 0.97 -38.94 L 27.19 -38.94 Q 27.53 -37.55 27.53 -36.54 L 27.53 -36.54 Q 27.53 -35.07 26.7 -34.43 Q 25.88 -33.79 24.1 -33.79 L 24.1 -33.79 L 20.4 -33.79 Q 20.04 -33.79 18.77 -33.83 Q 17.51 -33.87 17.09 -33.87 L 17.09 -33.87 L 17.09 0 Q 15.78 0.22 14.08 0.22 L 14.08 0.22 Q 12.3 0.22 10.99 0 L 10.99 0 L 10.99 -29.64 Q 10.99 -30.39 11.02 -31.73 Q 11.05 -33.06 11.05 -33.87 L 11.05 -33.87 L 10.99 -33.87 Q 10.63 -33.87 9.41 -33.83 Q 8.18 -33.79 7.77 -33.79 L 7.77 -33.79 L 0.97 -33.79 Q 0.75 -35.01 0.75 -36.38 Z M 33.2 0 L 33.2 0 L 33.2 -38.58 L 33.57 -38.99 Q 34.21 -38.99 38.87 -39.08 Q 43.53 -39.16 45.81 -39.16 L 45.81 -39.16 Q 51.85 -39.16 55.3 -36.11 Q 58.75 -33.06 58.75 -27.47 L 58.75 -27.47 Q 58.75 -23.66 56.72 -20.87 Q 54.69 -18.09 51.46 -17.09 L 51.46 -17.09 Q 54.11 -16.11 55.5 -12.25 L 55.5 -12.25 L 58 -5.59 Q 59.09 -2.64 60.56 -1.48 L 60.56 -1.48 Q 59.98 -0.61 58.82 -0.11 Q 57.67 0.39 56.47 0.39 L 56.47 0.39 Q 54.86 0.39 54.05 -0.45 Q 53.24 -1.28 52.49 -3.31 L 52.49 -3.31 L 49.62 -10.99 Q 49.21 -12.11 48.79 -12.86 Q 48.37 -13.61 47.72 -14.29 Q 47.06 -14.97 46.1 -15.32 Q 45.14 -15.67 43.86 -15.67 L 43.86 -15.67 L 39.19 -15.67 L 39.19 0 Q 37.96 0.22 36.18 0.22 L 36.18 0.22 Q 34.34 0.22 33.2 0 Z M 39.19 -34.43 L 39.19 -20.51 Q 43.64 -20.62 45.53 -20.62 L 45.53 -20.62 Q 47.54 -20.62 48.97 -21.21 Q 50.4 -21.79 51.13 -22.82 Q 51.85 -23.85 52.17 -24.98 Q 52.49 -26.11 52.49 -27.47 L 52.49 -27.47 Q 52.49 -34.37 45.53 -34.37 L 45.53 -34.37 Q 41.14 -34.37 39.19 -34.43 L 39.19 -34.43 Z M 63.51 -0.11 L 63.35 -0.39 L 76.23 -38.94 Q 77.46 -39.16 79.71 -39.16 L 79.71 -39.16 Q 81.99 -39.16 83.13 -38.94 L 83.13 -38.94 L 95.88 -0.39 Q 94.68 0.39 92.35 0.39 L 92.35 0.39 Q 90.9 0.39 90.11 -0.28 Q 89.31 -0.95 88.76 -2.78 L 88.76 -2.78 L 86.67 -9.46 Q 86.11 -9.46 84.76 -9.44 Q 83.41 -9.41 83.25 -9.41 L 83.25 -9.41 L 75.42 -9.41 Q 75.26 -9.41 73.96 -9.44 Q 72.67 -9.46 72.11 -9.46 L 72.11 -9.46 L 69.11 0.06 Q 68.1 0.28 66.49 0.28 L 66.49 0.28 Q 64.93 0.28 63.51 -0.11 L 63.51 -0.11 Z M 76.96 -24.69 L 73.67 -14.36 Q 74.2 -14.36 75.3 -14.39 Q 76.4 -14.42 76.57 -14.42 L 76.57 -14.42 L 82.27 -14.42 Q 82.41 -14.42 83.5 -14.39 Q 84.58 -14.36 85.11 -14.36 L 85.11 -14.36 L 82.49 -22.63 Q 80.71 -28.39 79.49 -32.95 L 79.49 -32.95 L 79.18 -32.95 Q 78.49 -29.72 76.96 -24.69 L 76.96 -24.69 Z M 102.56 0.06 L 102.2 -0.33 L 102.2 -38.58 L 102.56 -38.99 Q 107.52 -39.16 115.09 -39.16 L 115.09 -39.16 Q 117.67 -39.16 120.5 -38.42 Q 123.32 -37.68 125.02 -36.27 L 125.02 -36.27 Q 128.56 -33.34 129.81 -29.24 Q 131.06 -25.13 131.06 -19.43 L 131.06 -19.43 Q 131.06 -13.64 129.82 -9.59 Q 128.58 -5.54 125.02 -2.62 L 125.02 -2.62 Q 123.32 -1.2 120.5 -0.46 Q 117.67 0.28 115.09 0.28 L 115.09 0.28 Q 112.47 0.28 102.56 0.06 L 102.56 0.06 Z M 108.24 -34.32 L 108.24 -4.62 Q 108.38 -4.65 109.88 -4.65 L 109.88 -4.65 Q 110.63 -4.65 111.72 -4.65 L 111.72 -4.65 Q 115 -4.62 115.09 -4.62 L 115.09 -4.62 Q 117.51 -4.62 119.32 -5.54 Q 121.13 -6.46 122.14 -7.86 Q 123.16 -9.27 123.77 -11.33 Q 124.38 -13.39 124.58 -15.27 Q 124.77 -17.14 124.77 -19.43 L 124.77 -19.43 Q 124.77 -21.04 124.67 -22.42 Q 124.58 -23.8 124.31 -25.35 Q 124.05 -26.91 123.62 -28.15 Q 123.18 -29.39 122.43 -30.56 Q 121.68 -31.73 120.69 -32.52 Q 119.71 -33.31 118.27 -33.79 Q 116.84 -34.26 115.09 -34.26 L 115.09 -34.26 Q 113.92 -34.26 111.73 -34.29 Q 109.55 -34.32 108.24 -34.32 L 108.24 -34.32 Z M 139.33 0 L 139.33 0 L 139.33 -38.94 Q 140.47 -39.16 142.33 -39.16 L 142.33 -39.16 Q 144.14 -39.16 145.37 -38.94 L 145.37 -38.94 L 145.37 0 Q 144.14 0.22 142.33 0.22 L 142.33 0.22 Q 140.47 0.22 139.33 0 Z M 155.89 0 L 155.89 0 L 155.89 -38.88 Q 157.5 -39.16 159.48 -39.16 L 159.48 -39.16 Q 161.54 -39.16 163.12 -38.94 L 163.12 -38.94 L 175.17 -15.06 Q 175.98 -13.36 177.28 -10.45 Q 178.57 -7.54 178.93 -6.79 L 178.93 -6.79 L 179.15 -6.85 Q 178.71 -14.14 178.71 -21.21 L 178.71 -21.21 L 178.71 -35.4 Q 178.71 -37.43 179.42 -38.3 Q 180.13 -39.16 181.94 -39.16 L 181.94 -39.16 L 183.94 -39.16 L 184.28 -38.88 L 184.28 -0.06 Q 182.66 0.22 180.63 0.22 L 180.63 0.22 Q 178.57 0.22 176.98 0 L 176.98 0 L 164.85 -23.88 Q 163.15 -27.41 161.26 -31.81 L 161.26 -31.81 L 161.04 -31.76 Q 161.54 -22.93 161.54 -17.78 L 161.54 -17.78 L 161.54 0 Q 160.17 0.22 158.75 0.22 L 158.75 0.22 Q 157.2 0.22 155.89 0 Z M 192.24 -19.2 L 192.24 -19.2 Q 192.24 -23.41 193.2 -26.87 Q 194.16 -30.34 195.77 -32.67 Q 197.38 -35.01 199.57 -36.61 Q 201.75 -38.21 204.15 -38.94 Q 206.54 -39.66 209.13 -39.66 L 209.13 -39.66 Q 212.78 -39.66 216.3 -38.55 Q 219.82 -37.43 222.41 -35.51 L 222.41 -35.51 Q 222.21 -34.18 221.36 -32.91 Q 220.51 -31.65 219.48 -30.95 L 219.48 -30.95 Q 214.86 -34.48 209.13 -34.48 L 209.13 -34.48 Q 206.88 -34.48 205.02 -33.65 Q 203.17 -32.81 201.7 -31.05 Q 200.22 -29.28 199.4 -26.26 Q 198.58 -23.24 198.58 -19.15 L 198.58 -19.15 Q 198.58 -4.29 209.46 -4.29 L 209.46 -4.29 Q 213.47 -4.29 216.7 -5.23 L 216.7 -5.23 L 216.7 -11.63 Q 216.7 -14.14 216.81 -15.28 L 216.81 -15.28 L 211.8 -15.28 Q 210.3 -15.28 209.62 -15.89 Q 208.94 -16.5 208.94 -17.95 L 208.94 -17.95 Q 208.94 -19.18 209.41 -20.46 L 209.41 -20.46 L 218.18 -20.51 Q 220.49 -20.51 221.5 -19.51 Q 222.52 -18.51 222.52 -16.53 L 222.52 -16.53 L 222.52 -1.7 Q 216.12 0.75 208.43 0.75 L 208.43 0.75 Q 204.98 0.75 202.23 -0.31 Q 199.47 -1.36 197.62 -3.19 Q 195.77 -5.01 194.55 -7.57 Q 193.32 -10.13 192.78 -13.03 Q 192.24 -15.92 192.24 -19.2 Z" stroke-linecap="round" />
</g>
</svg>