<?xml version="1.0" encoding="UTF-8" standalone="no" ?>
<!DOCTYPE svg PUBLIC "-//W3C//DTD SVG 1.1//EN" "http://www.w3.org/Graphics/SVG/1.1/DTD/svg11.dtd">
<svg xmlns="http://www.w3.org/2000/svg" xmlns:xlink="http://www.w3.org/1999/xlink" version="1.1" width="1280" height="1024" viewBox="0 0 1280 1024" xml:space="preserve">
<desc>Created with Fabric.js 3.1.0</desc>
<defs>
</defs>
<g transform="matrix(1.9692780337941629 0 0 1.9692780337941629 640.0159596445704 351.9137577766749)" style="" id="logo-logo"  >
	<g transform="matrix(0.208 0 0 -0.208 -0.0012919999999780885 -2.500903999999963)"  >
<path style="stroke: none; stroke-width: 1; stroke-dasharray: none; stroke-linecap: butt; stroke-dashoffset: 0; stroke-linejoin: miter; stroke-miterlimit: 4; fill: rgb(191,178,144); fill-rule: nonzero; opacity: 1;"  paint-order="stroke"  transform=" translate(-870.2574999999999, -1107.6734999999999)" d="M 870.254 1298.12 L 1176.96 917.227 L 971.461 1053.53 L 1025.05 932.121 L 895.453 1078.82 L 870.254 967.52 L 845.055 1078.82 L 715.453 932.121 L 769.156 1053.53 L 563.555 917.227 L 870.254 1298.12" stroke-linecap="round" />
</g>
	<g transform="matrix(0.208 0 0 -0.208 -0.0002920000000017353 -1.7159039999999948)"  >
<path style="stroke: none; stroke-width: 1; stroke-dasharray: none; stroke-linecap: butt; stroke-dashoffset: 0; stroke-linejoin: miter; stroke-miterlimit: 4; fill: rgb(82,66,59); fill-rule: nonzero; opacity: 1;"  paint-order="stroke"  transform=" translate(-870.2629999999999, -1103.8995)" d="m 1296.76 814.699 c -11.39 -0.597 -22.59 -2.304 -33.3 -5 l -86.49 107.5 L 870.266 1298.1 L 563.563 917.199 L 477.066 809.699 c -10.703 2.696 -21.906 4.403 -33.3 5 l 426.5 583.401 l 426.494 -583.401" stroke-linecap="round" />
</g>
	<g transform="matrix(0.208 0 0 -0.208 90.89070800000002 96.21009600000005)"  >
<linearGradient id="SVGID_699689" gradientUnits="userSpaceOnUse" gradientTransform="matrix(-363.096 0.0000317 0.0000317 363.096 1488.46 633.45)"  x1="0" y1="5.684341886080802e-14" x2="1" y2="5.684341886080802e-14">
<stop offset="0%" style="stop-color:rgb(211,30,37);stop-opacity: 1"/>
<stop offset="100%" style="stop-color:rgb(236,37,54);stop-opacity: 1"/>
</linearGradient>
<path style="stroke: none; stroke-width: 1; stroke-dasharray: none; stroke-linecap: butt; stroke-dashoffset: 0; stroke-linejoin: miter; stroke-miterlimit: 4; fill: url(#SVGID_699689); fill-rule: nonzero; opacity: 1;"  paint-order="stroke"  transform=" translate(-1306.9150000000002, -633.4490000000001)" d="m 1488.46 633.5 c 0 -47.809 -18.4 -91.199 -48.49 -123.609 c -30.1 -32.391 -71.81 -53.801 -118.61 -57.391 c -4.79 -0.398 -9.6 -0.602 -14.39 -0.602 c -100.3 0 -181.6 81.293 -181.6 181.602 c 0 62.5 31.6 117.594 79.69 150.301 c 17.5 11.894 37.2 20.801 58.4 25.898 c 10.71 2.696 21.91 4.403 33.3 5 c 3.4 0.196 6.8 0.301 10.21 0.301 c 100.29 0 181.49 -81.301 181.49 -181.5" stroke-linecap="round" />
</g>
	<g transform="matrix(0.208 0 0 -0.208 -90.89029200000002 96.21009600000005)"  >
<linearGradient id="SVGID_699690" gradientUnits="userSpaceOnUse" gradientTransform="matrix(363.096 0 0 -363.096 252.065 633.45)"  x1="-2.842170943040401e-14" y1="5.684341886080802e-14" x2="0.9999999999999716" y2="5.684341886080802e-14">
<stop offset="0%" style="stop-color:rgb(211,30,37);stop-opacity: 1"/>
<stop offset="100%" style="stop-color:rgb(236,37,54);stop-opacity: 1"/>
</linearGradient>
<path style="stroke: none; stroke-width: 1; stroke-dasharray: none; stroke-linecap: butt; stroke-dashoffset: 0; stroke-linejoin: miter; stroke-miterlimit: 4; fill: url(#SVGID_699690); fill-rule: nonzero; opacity: 1;"  paint-order="stroke"  transform=" translate(-433.61299999999994, -633.4490000000001)" d="m 615.16 633.5 c 0 -100.309 -81.297 -181.602 -181.597 -181.602 c -4.797 0 -9.598 0.204 -14.399 0.602 c -46.801 3.59 -88.5 25 -118.601 57.391 c -30.098 32.41 -48.497 75.8 -48.497 123.609 c 0 100.199 81.196 181.5 181.497 181.5 c 3.402 0 6.796 -0.105 10.203 -0.301 c 11.394 -0.597 22.597 -2.304 33.3 -5 c 21.196 -5.097 40.899 -14.004 58.399 -25.898 C 583.563 751.094 615.16 696 615.16 633.5" stroke-linecap="round" />
</g>
	<g transform="matrix(0.208 0 0 -0.208 33.87770800000004 -85.57290399999997)"  >
<path style="stroke: none; stroke-width: 1; stroke-dasharray: none; stroke-linecap: butt; stroke-dashoffset: 0; stroke-linejoin: miter; stroke-miterlimit: 4; fill: rgb(163,215,29); fill-rule: nonzero; opacity: 1;"  paint-order="stroke"  transform=" translate(-1033.0165000000002, -1506.7651786342249)" d="m 1186.17 1609.6 c -134.1 -273.3 -306.307 -195.4 -306.307 -195.4 c 0 0 125.597 7.2 167.207 175.5 c 37.4 11.3 83.09 18.7 139.1 19.9" stroke-linecap="round" />
</g>
	<g transform="matrix(0.208 0 0 -0.208 17.29970800000001 -101.191904)"  >
<path style="stroke: none; stroke-width: 1; stroke-dasharray: none; stroke-linecap: butt; stroke-dashoffset: 0; stroke-linejoin: miter; stroke-miterlimit: 4; fill: rgb(118,201,43); fill-rule: nonzero; opacity: 1;"  paint-order="stroke"  transform=" translate(-953.3747204841757, -1581.8000000000002)" d="m 1037.07 1599.7 c -41.605 -168.3 -167.207 -175.5 -167.207 -175.5 c 0 0 -86.3 167.9 180.107 315.2 c 1.49 -55.9 -3.61 -101.9 -12.9 -139.7" stroke-linecap="round" />
</g>
</g>
<g transform="matrix(1.9692780337941629 0 0 1.9692780337941629 645.7095751275774 740.4376382411062)" id="text-logo-path"  >
<path style="stroke: none; stroke-width: 1; stroke-dasharray: none; stroke-linecap: butt; stroke-dashoffset: 0; stroke-linejoin: miter; stroke-miterlimit: 4; fill: rgb(82,66,59); fill-rule: nonzero; opacity: 1;"  paint-order="stroke"  transform=" translate(-212.74999999999997, 27.62)" d="M 7.22 -10.63 L 7.22 -10.63 L 7.22 -44.62 Q 7.22 -50.3 10.71 -53.42 Q 14.19 -56.53 21.17 -56.53 Q 28.14 -56.53 31.71 -53.42 Q 35.28 -50.3 35.28 -44.62 L 35.28 -44.62 L 35.28 -36.56 L 29.34 -36.56 L 29.34 -44.62 Q 29.34 -51.42 21.25 -51.42 Q 13.16 -51.42 13.16 -44.62 L 13.16 -44.62 L 13.16 -10.63 Q 13.16 -3.82 21.25 -3.82 Q 29.34 -3.82 29.34 -10.63 L 29.34 -10.63 L 29.34 -15.31 L 35.28 -15.31 L 35.28 -10.63 Q 35.28 -4.94 31.79 -1.83 Q 28.31 1.29 21.33 1.29 Q 14.36 1.29 10.79 -1.83 Q 7.22 -4.94 7.22 -10.63 Z M 56.07 0 L 50.14 0 L 50.14 -55.24 L 56.07 -55.24 L 56.07 -30.59 L 72.84 -30.59 L 72.84 -55.24 L 78.77 -55.24 L 78.77 0 L 72.84 0 L 72.84 -25.48 L 56.07 -25.48 L 56.07 0 Z M 94.46 -10.63 L 94.46 -10.63 L 94.46 -44.62 Q 94.46 -50.3 97.95 -53.42 Q 101.44 -56.53 108.41 -56.53 Q 115.38 -56.53 118.95 -53.42 Q 122.52 -50.3 122.52 -44.62 L 122.52 -44.62 L 122.52 -25.94 L 100.4 -25.94 L 100.4 -10.63 Q 100.4 -3.82 108.49 -3.82 Q 116.58 -3.82 116.58 -10.63 L 116.58 -10.63 L 116.58 -15.31 L 122.52 -15.31 L 122.52 -10.63 Q 122.52 -4.94 119.03 -1.83 Q 115.55 1.29 108.57 1.29 Q 101.6 1.29 98.03 -1.83 Q 94.46 -4.94 94.46 -10.63 Z M 100.4 -44.62 L 100.4 -31.04 L 116.58 -31.04 L 116.58 -44.62 Q 116.58 -51.42 108.49 -51.42 Q 100.4 -51.42 100.4 -44.62 L 100.4 -44.62 Z M 144.18 0 L 138.25 0 L 138.25 -55.24 L 140.78 -55.24 L 143.27 -48.97 Q 146.01 -56.53 151.95 -56.53 L 151.95 -56.53 Q 162.07 -56.53 162.03 -45.49 L 162.03 -45.49 L 162.03 -39.97 L 156.35 -39.97 L 156.35 -45.82 Q 156.35 -51.42 151.66 -51.42 L 151.66 -51.42 Q 148.83 -51.42 146.51 -48.19 Q 144.18 -44.95 144.18 -38.85 L 144.18 -38.85 L 144.18 0 Z M 178.18 0 L 172.24 0 L 172.24 -55.24 L 174.77 -55.24 L 177.26 -48.97 Q 180 -56.53 185.94 -56.53 L 185.94 -56.53 Q 196.06 -56.53 196.02 -45.49 L 196.02 -45.49 L 196.02 -39.97 L 190.34 -39.97 L 190.34 -45.82 Q 190.34 -51.42 185.65 -51.42 L 185.65 -51.42 Q 182.82 -51.42 180.5 -48.19 Q 178.18 -44.95 178.18 -38.85 L 178.18 -38.85 L 178.18 0 Z M 203.24 -27.35 L 203.24 -27.35 L 203.24 -55.24 L 209.18 -55.24 L 209.18 -27.35 Q 209.18 -20.54 217.65 -20.54 L 217.65 -20.54 Q 217.65 -20.54 217.69 -20.59 L 217.69 -20.59 Q 226.2 -20.59 226.2 -27.35 L 226.2 -27.35 L 226.2 -55.24 L 232.13 -55.24 L 232.13 -27.35 Q 232.13 -16.89 220.76 -15.65 L 220.76 -15.65 L 220.76 0 L 214.82 0 L 214.82 -15.65 Q 203.24 -16.93 203.24 -27.35 Z M 270.81 0 L 264.84 0 L 264.84 -55.24 L 277.7 -55.24 Q 284.34 -55.24 287.77 -52.11 Q 291.19 -48.97 291.19 -43.33 L 291.19 -43.33 L 291.19 -28.89 Q 291.19 -23.2 287.79 -20.11 Q 284.38 -17.02 277.7 -17.02 L 277.7 -17.02 L 270.81 -17.02 L 270.81 0 Z M 270.81 -50.14 L 270.81 -22.08 L 277.7 -22.08 Q 285.26 -22.08 285.26 -28.89 L 285.26 -28.89 L 285.26 -43.33 Q 285.26 -46.57 283.31 -48.35 Q 281.35 -50.14 277.7 -50.14 L 277.7 -50.14 L 270.81 -50.14 Z M 303.52 -10.63 L 303.52 -10.63 L 303.52 -44.62 Q 303.52 -50.3 307 -53.42 Q 310.49 -56.53 317.46 -56.53 Q 324.44 -56.53 328.01 -53.42 Q 331.57 -50.3 331.57 -44.62 L 331.57 -44.62 L 331.57 -25.94 L 309.45 -25.94 L 309.45 -10.63 Q 309.45 -3.82 317.55 -3.82 Q 325.64 -3.82 325.64 -10.63 L 325.64 -10.63 L 325.64 -15.31 L 331.57 -15.31 L 331.57 -10.63 Q 331.57 -4.94 328.09 -1.83 Q 324.6 1.29 317.63 1.29 Q 310.66 1.29 307.09 -1.83 Q 303.52 -4.94 303.52 -10.63 Z M 309.45 -44.62 L 309.45 -31.04 L 325.64 -31.04 L 325.64 -44.62 Q 325.64 -51.42 317.55 -51.42 Q 309.45 -51.42 309.45 -44.62 L 309.45 -44.62 Z M 345.6 -10.63 L 345.6 -10.63 L 345.6 -19.13 Q 345.6 -31.04 357.85 -31.04 L 357.85 -31.04 L 367.68 -31.04 L 367.68 -44.95 Q 367.68 -48.02 365.73 -49.72 Q 363.78 -51.42 359.96 -51.42 L 359.96 -51.42 Q 352.41 -51.42 352.41 -44.95 L 352.41 -44.95 L 352.41 -39.97 L 346.43 -39.97 L 346.43 -44.62 Q 346.43 -50.3 349.79 -53.42 Q 353.16 -56.53 359.96 -56.53 Q 366.77 -56.53 370.21 -53.42 Q 373.66 -50.3 373.66 -44.62 L 373.66 -44.62 L 373.66 0 L 371.09 0 L 368.89 -5.44 Q 367.1 -2.37 364.22 -0.54 Q 361.33 1.29 357.85 1.29 L 357.85 1.29 Q 345.6 1.29 345.6 -10.63 Z M 351.54 -19.13 L 351.54 -10.63 Q 351.54 -7.39 352.91 -5.6 Q 354.28 -3.82 357.85 -3.82 Q 361.42 -3.82 364.47 -6.58 Q 367.52 -9.34 367.68 -12.08 L 367.68 -12.08 L 367.68 -25.94 L 357.85 -25.94 Q 354.28 -25.94 352.91 -24.16 Q 351.54 -22.37 351.54 -19.13 L 351.54 -19.13 Z M 395.82 0 L 389.89 0 L 389.89 -55.24 L 395.82 -55.24 L 395.82 -31.79 L 410.64 -55.24 L 417.24 -55.24 L 402.21 -31.46 L 418.28 0 L 411.72 0 L 398.65 -25.77 L 395.82 -21.25 L 395.82 0 Z" stroke-linecap="round" />
</g>
<g transform="matrix(1.9692780337941629 0 0 1.9692780337941629 641.7018327840675 868.745562826095)" id="tagline-41b0f13f-56fb-482d-a922-ef069f0ad764-logo-path"  >
<path style="stroke: none; stroke-width: 1; stroke-dasharray: none; stroke-linecap: butt; stroke-dashoffset: 0; stroke-linejoin: miter; stroke-miterlimit: 4; fill: rgb(215,31,40); fill-rule: nonzero; opacity: 1;"  paint-order="stroke"  transform=" translate(-109.42499999999998, 19.455)" d="M 5.54 0.06 L 5.18 -0.33 L 5.18 -38.58 L 5.54 -38.99 Q 6.23 -38.99 10.7 -39.08 Q 15.17 -39.16 17.4 -39.16 L 17.4 -39.16 Q 23.57 -39.16 26.69 -36.46 Q 29.81 -33.76 29.81 -28.83 L 29.81 -28.83 Q 29.81 -26.16 28.35 -23.99 Q 26.89 -21.82 24.46 -20.87 L 24.46 -20.87 Q 27.47 -19.98 29.59 -17.21 Q 31.7 -14.44 31.7 -10.88 L 31.7 -10.88 Q 31.7 -5.87 28.31 -2.82 Q 24.91 0.22 18.12 0.22 L 18.12 0.22 Q 16.06 0.22 13.99 0.19 Q 11.91 0.17 9.46 0.13 Q 7.01 0.08 5.54 0.06 L 5.54 0.06 Z M 11.16 -18.12 L 11.16 -4.34 Q 12.39 -4.34 14.71 -4.37 Q 17.03 -4.4 18.06 -4.4 L 18.06 -4.4 Q 19.84 -4.4 21.19 -4.84 Q 22.54 -5.29 23.34 -5.96 Q 24.13 -6.62 24.63 -7.57 Q 25.13 -8.52 25.3 -9.39 Q 25.47 -10.27 25.47 -11.22 L 25.47 -11.22 Q 25.47 -12.39 25.09 -13.51 Q 24.71 -14.64 23.89 -15.73 Q 23.07 -16.81 21.49 -17.46 Q 19.9 -18.12 17.73 -18.12 L 17.73 -18.12 L 11.16 -18.12 Z M 11.16 -34.6 L 11.16 -22.79 L 17.14 -22.79 Q 19.06 -22.79 20.43 -23.32 Q 21.79 -23.85 22.46 -24.76 Q 23.13 -25.66 23.42 -26.61 Q 23.71 -27.55 23.71 -28.67 L 23.71 -28.67 Q 23.71 -34.54 17.28 -34.54 L 17.28 -34.54 Q 13 -34.54 11.16 -34.6 L 11.16 -34.6 Z M 39.86 0 L 39.86 0 L 39.86 -38.94 Q 41 -39.16 42.86 -39.16 L 42.86 -39.16 Q 44.67 -39.16 45.9 -38.94 L 45.9 -38.94 L 45.9 0 Q 44.67 0.22 42.86 0.22 L 42.86 0.22 Q 41 0.22 39.86 0 Z M 56.78 0.06 L 56.42 -0.33 L 56.42 -38.58 L 56.78 -38.99 Q 61.73 -39.16 69.3 -39.16 L 69.3 -39.16 Q 71.89 -39.16 74.72 -38.42 Q 77.54 -37.68 79.24 -36.27 L 79.24 -36.27 Q 82.77 -33.34 84.02 -29.24 Q 85.28 -25.13 85.28 -19.43 L 85.28 -19.43 Q 85.28 -13.64 84.04 -9.59 Q 82.8 -5.54 79.24 -2.62 L 79.24 -2.62 Q 77.54 -1.2 74.72 -0.46 Q 71.89 0.28 69.3 0.28 L 69.3 0.28 Q 66.69 0.28 56.78 0.06 L 56.78 0.06 Z M 62.46 -34.32 L 62.46 -4.62 Q 62.59 -4.65 64.1 -4.65 L 64.1 -4.65 Q 64.85 -4.65 65.93 -4.65 L 65.93 -4.65 Q 69.22 -4.62 69.3 -4.62 L 69.3 -4.62 Q 71.72 -4.62 73.53 -5.54 Q 75.34 -6.46 76.36 -7.86 Q 77.37 -9.27 77.99 -11.33 Q 78.6 -13.39 78.79 -15.27 Q 78.99 -17.14 78.99 -19.43 L 78.99 -19.43 Q 78.99 -21.04 78.89 -22.42 Q 78.79 -23.8 78.53 -25.35 Q 78.26 -26.91 77.83 -28.15 Q 77.4 -29.39 76.65 -30.56 Q 75.9 -31.73 74.91 -32.52 Q 73.92 -33.31 72.49 -33.79 Q 71.06 -34.26 69.3 -34.26 L 69.3 -34.26 Q 68.13 -34.26 65.95 -34.29 Q 63.76 -34.32 62.46 -34.32 L 62.46 -34.32 Z M 93.71 0.06 L 93.35 -0.33 L 93.35 -38.58 L 93.71 -38.99 Q 98.66 -39.16 106.23 -39.16 L 106.23 -39.16 Q 108.82 -39.16 111.65 -38.42 Q 114.47 -37.68 116.17 -36.27 L 116.17 -36.27 Q 119.71 -33.34 120.96 -29.24 Q 122.21 -25.13 122.21 -19.43 L 122.21 -19.43 Q 122.21 -13.64 120.97 -9.59 Q 119.73 -5.54 116.17 -2.62 L 116.17 -2.62 Q 114.47 -1.2 111.65 -0.46 Q 108.82 0.28 106.23 0.28 L 106.23 0.28 Q 103.62 0.28 93.71 0.06 L 93.71 0.06 Z M 99.39 -34.32 L 99.39 -4.62 Q 99.53 -4.65 101.03 -4.65 L 101.03 -4.65 Q 101.78 -4.65 102.87 -4.65 L 102.87 -4.65 Q 106.15 -4.62 106.23 -4.62 L 106.23 -4.62 Q 108.66 -4.62 110.47 -5.54 Q 112.27 -6.46 113.29 -7.86 Q 114.31 -9.27 114.92 -11.33 Q 115.53 -13.39 115.73 -15.27 Q 115.92 -17.14 115.92 -19.43 L 115.92 -19.43 Q 115.92 -21.04 115.82 -22.42 Q 115.73 -23.8 115.46 -25.35 Q 115.2 -26.91 114.77 -28.15 Q 114.33 -29.39 113.58 -30.56 Q 112.83 -31.73 111.84 -32.52 Q 110.85 -33.31 109.42 -33.79 Q 107.99 -34.26 106.23 -34.26 L 106.23 -34.26 Q 105.07 -34.26 102.88 -34.29 Q 100.7 -34.32 99.39 -34.32 L 99.39 -34.32 Z M 130.48 0 L 130.48 0 L 130.48 -38.94 Q 131.62 -39.16 133.48 -39.16 L 133.48 -39.16 Q 135.29 -39.16 136.52 -38.94 L 136.52 -38.94 L 136.52 0 Q 135.29 0.22 133.48 0.22 L 133.48 0.22 Q 131.62 0.22 130.48 0 Z M 147.04 0 L 147.04 0 L 147.04 -38.88 Q 148.65 -39.16 150.63 -39.16 L 150.63 -39.16 Q 152.69 -39.16 154.27 -38.94 L 154.27 -38.94 L 166.32 -15.06 Q 167.13 -13.36 168.43 -10.45 Q 169.72 -7.54 170.08 -6.79 L 170.08 -6.79 L 170.3 -6.85 Q 169.86 -14.14 169.86 -21.21 L 169.86 -21.21 L 169.86 -35.4 Q 169.86 -37.43 170.57 -38.3 Q 171.28 -39.16 173.09 -39.16 L 173.09 -39.16 L 175.09 -39.16 L 175.43 -38.88 L 175.43 -0.06 Q 173.81 0.22 171.78 0.22 L 171.78 0.22 Q 169.72 0.22 168.13 0 L 168.13 0 L 156 -23.88 Q 154.3 -27.41 152.41 -31.81 L 152.41 -31.81 L 152.19 -31.76 Q 152.69 -22.93 152.69 -17.78 L 152.69 -17.78 L 152.69 0 Q 151.32 0.22 149.9 0.22 L 149.9 0.22 Q 148.34 0.22 147.04 0 Z M 183.39 -19.2 L 183.39 -19.2 Q 183.39 -23.41 184.35 -26.87 Q 185.31 -30.34 186.92 -32.67 Q 188.53 -35.01 190.72 -36.61 Q 192.9 -38.21 195.3 -38.94 Q 197.69 -39.66 200.28 -39.66 L 200.28 -39.66 Q 203.93 -39.66 207.45 -38.55 Q 210.97 -37.43 213.56 -35.51 L 213.56 -35.51 Q 213.36 -34.18 212.51 -32.91 Q 211.66 -31.65 210.63 -30.95 L 210.63 -30.95 Q 206.01 -34.48 200.28 -34.48 L 200.28 -34.48 Q 198.02 -34.48 196.17 -33.65 Q 194.32 -32.81 192.85 -31.05 Q 191.37 -29.28 190.55 -26.26 Q 189.73 -23.24 189.73 -19.15 L 189.73 -19.15 Q 189.73 -4.29 200.61 -4.29 L 200.61 -4.29 Q 204.62 -4.29 207.85 -5.23 L 207.85 -5.23 L 207.85 -11.63 Q 207.85 -14.14 207.96 -15.28 L 207.96 -15.28 L 202.95 -15.28 Q 201.45 -15.28 200.77 -15.89 Q 200.08 -16.5 200.08 -17.95 L 200.08 -17.95 Q 200.08 -19.18 200.56 -20.46 L 200.56 -20.46 L 209.32 -20.51 Q 211.63 -20.51 212.65 -19.51 Q 213.67 -18.51 213.67 -16.53 L 213.67 -16.53 L 213.67 -1.7 Q 207.27 0.75 199.58 0.75 L 199.58 0.75 Q 196.13 0.75 193.38 -0.31 Q 190.62 -1.36 188.77 -3.19 Q 186.92 -5.01 185.7 -7.57 Q 184.47 -10.13 183.93 -13.03 Q 183.39 -15.92 183.39 -19.2 Z" stroke-linecap="round" />
</g>
</svg>